<svg id="logo-black" xmlns="http://www.w3.org/2000/svg" width="283.963" height="283.963" viewBox="0 0 283.963 283.963">
  <path id="Path_1" data-name="Path 1" d="M283.963,283.963H0V113.036L21.769,91.267V262.191H262.191V21.769H91.263L113.036,0H283.96V283.963h0Z"/>
  <path id="Path_2" data-name="Path 2" d="M292.36,206.04H267.332l-33.208,87.817-31.153-43.978,43.372-43.839H215.876L172.5,252.053V206.04H148.1V317.031h24.4V281.28L186.5,267.132l33.423,49.9h30.621l-.412-.583,2.809-7.976-.007,0,17.7-50.414.072.027,8.76-24.684h.314l8.242,24,.017-.007.01,0,12.09,34.926h0l.208.617,5.177,14.949-.072.024-.017.007,3.1,9.117h25.338Z" transform="translate(-97.622 -135.814)" fill="#ff214f"/>
  <path id="Path_3" data-name="Path 3" d="M162.236,566.679a19.867,19.867,0,0,1,5.668.791,13.05,13.05,0,0,1,4.547,2.328,10.777,10.777,0,0,1,3,3.882,12.915,12.915,0,0,1,1.08,5.47,14.261,14.261,0,0,1-.883,5.082,10.737,10.737,0,0,1-2.679,4.029,12.7,12.7,0,0,1-4.431,2.645,18.4,18.4,0,0,1-6.288.971h-13.6v-25.2Zm-.484,20.539a10.906,10.906,0,0,0,2.911-.389,6.785,6.785,0,0,0,2.512-1.3,6.448,6.448,0,0,0,1.766-2.345,8.474,8.474,0,0,0,.661-3.528,11.968,11.968,0,0,0-.464-3.442,6.414,6.414,0,0,0-1.52-2.614,6.868,6.868,0,0,0-2.8-1.674,13.718,13.718,0,0,0-4.3-.583h-4.929v15.88Z" transform="translate(-97.984 -373.533)"/>
  <path id="Path_4" data-name="Path 4" d="M289.192,567.68v4.693H272.447v5.436h15.358v4.335H272.447v6.22h17.1v4.69H265.47V567.68Z" transform="translate(-174.987 -374.192)"/>
  <path id="Path_5" data-name="Path 5" d="M389.991,572.231a6.237,6.237,0,0,0-1.544-1.4,7.84,7.84,0,0,0-2.1-.934,8.916,8.916,0,0,0-2.447-.341,9.8,9.8,0,0,0-3.971.723,7.1,7.1,0,0,0-2.648,1.943,7.672,7.672,0,0,0-1.476,2.768,11.141,11.141,0,0,0-.464,3.214,10.342,10.342,0,0,0,.464,3.068,7.564,7.564,0,0,0,1.476,2.7,7.243,7.243,0,0,0,2.648,1.922,9.738,9.738,0,0,0,3.971.723,7.331,7.331,0,0,0,4.963-1.551,6.568,6.568,0,0,0,2.181-4.09h6.708a10.808,10.808,0,0,1-1.363,4.267,10.589,10.589,0,0,1-2.911,3.248,13.143,13.143,0,0,1-4.233,2.045,18.952,18.952,0,0,1-5.338.709,19.807,19.807,0,0,1-6.51-1.005,14.376,14.376,0,0,1-4.874-2.771,12.041,12.041,0,0,1-3.05-4.134,12.5,12.5,0,0,1-1.057-5.133,12.951,12.951,0,0,1,1.057-5.242,12.3,12.3,0,0,1,3.044-4.216,14.316,14.316,0,0,1,4.874-2.826,20.9,20.9,0,0,1,11.428-.423,14.679,14.679,0,0,1,4.145,1.748,10.39,10.39,0,0,1,3.023,2.839,8.749,8.749,0,0,1,1.5,3.882h-6.718A4.042,4.042,0,0,0,389.991,572.231Z" transform="translate(-242.847 -372.36)"/>
  <path id="Path_6" data-name="Path 6" d="M487.386,572.984a12.293,12.293,0,0,1,3.044-4.216,14.272,14.272,0,0,1,4.874-2.826,21.288,21.288,0,0,1,13.037,0,14.335,14.335,0,0,1,4.854,2.826,12.293,12.293,0,0,1,3.044,4.216,12.953,12.953,0,0,1,1.057,5.242,12.5,12.5,0,0,1-1.057,5.133,12.04,12.04,0,0,1-3.044,4.148,14.407,14.407,0,0,1-4.854,2.771,21.632,21.632,0,0,1-13.037,0,14.34,14.34,0,0,1-4.874-2.771,12.042,12.042,0,0,1-3.044-4.155,12.5,12.5,0,0,1-1.057-5.133A12.952,12.952,0,0,1,487.386,572.984Zm6.329,8.323a7.627,7.627,0,0,0,1.479,2.7,7.214,7.214,0,0,0,2.648,1.922,11.248,11.248,0,0,0,7.938,0,7.268,7.268,0,0,0,2.648-1.922,7.616,7.616,0,0,0,1.476-2.7,10.345,10.345,0,0,0,.464-3.068,11.143,11.143,0,0,0-.464-3.214,7.723,7.723,0,0,0-1.476-2.768,7.124,7.124,0,0,0-2.648-1.943,11.248,11.248,0,0,0-7.938,0,7.069,7.069,0,0,0-2.648,1.943,7.731,7.731,0,0,0-1.479,2.768,11.248,11.248,0,0,0-.464,3.214A10.453,10.453,0,0,0,493.715,581.308Z" transform="translate(-320.569 -372.373)"/>
  <path id="Path_7" data-name="Path 7" d="M629.994,566.678a12.512,12.512,0,0,1,3.818.545,9.287,9.287,0,0,1,2.911,1.5,6.641,6.641,0,0,1,1.854,2.205,5.852,5.852,0,0,1,.637,2.7,6.387,6.387,0,0,1-1.169,3.845,7.2,7.2,0,0,1-3.814,2.471v.072a5.9,5.9,0,0,1,2.117.866,5.085,5.085,0,0,1,1.363,1.363,5.684,5.684,0,0,1,.774,1.749,12.4,12.4,0,0,1,.341,1.905c.027.4.058.869.089,1.411s.082,1.094.153,1.66a8.76,8.76,0,0,0,.341,1.605,3.383,3.383,0,0,0,.726,1.288h-6.919a8.118,8.118,0,0,1-.706-2.86q-.133-1.657-.4-3.177a4.516,4.516,0,0,0-1.5-2.894,6.055,6.055,0,0,0-3.749-.917h-6.929v9.847H613V566.678Zm-2.468,11.4a6.145,6.145,0,0,0,3.572-.849,3.16,3.16,0,0,0,1.19-2.754,3.014,3.014,0,0,0-1.19-2.662,6.291,6.291,0,0,0-3.572-.832h-7.591v7.1Z" transform="translate(-404.066 -373.531)"/>
  <path id="Path_8" data-name="Path 8" d="M1.1,71.909V.37H72.642L50.869,22.139h-28v28L1.1,71.905Z" transform="translate(-0.725 -0.244)" fill="#ff214f"/>
</svg>
