<svg id="logo-white" xmlns="http://www.w3.org/2000/svg" width="281.248" height="281.248" viewBox="0 0 281.248 281.248">
  <path id="Path_9" data-name="Path 9" d="M281.248,281.248H0V111.955L21.561,90.394V259.683H259.683V21.561H90.39L111.955,0h169.29V281.248h0Z" fill="#fff"/>
  <path id="Path_10" data-name="Path 10" d="M290.981,206.04H266.192L233.3,293.017,202.447,249.46,245.4,206.04H215.228l-42.957,45.573V206.04H148.1V315.969h24.171V280.561l13.858-14.013,33.1,49.422H249.56l-.408-.577,2.782-7.9-.007,0,17.527-49.931.071.027,8.676-24.448h.311l8.163,23.772.017-.007.01,0,11.974,34.592h0l.206.611,5.128,14.806-.071.024-.017.007,3.069,9.03h25.1Z" transform="translate(-98.104 -136.485)" fill="#ff214f"/>
  <path id="Path_11" data-name="Path 11" d="M162.106,566.679a19.678,19.678,0,0,1,5.614.783,12.924,12.924,0,0,1,4.5,2.306,10.671,10.671,0,0,1,2.971,3.845,12.79,12.79,0,0,1,1.07,5.418,14.125,14.125,0,0,1-.874,5.033,10.634,10.634,0,0,1-2.653,3.99,12.582,12.582,0,0,1-4.389,2.62,18.232,18.232,0,0,1-6.228.962H148.65V566.679Zm-.479,20.343a10.8,10.8,0,0,0,2.883-.385A6.722,6.722,0,0,0,167,585.354a6.387,6.387,0,0,0,1.749-2.323,8.392,8.392,0,0,0,.655-3.494,11.853,11.853,0,0,0-.459-3.41,6.354,6.354,0,0,0-1.506-2.589,6.8,6.8,0,0,0-2.772-1.657,13.591,13.591,0,0,0-4.264-.577H155.52v15.728Z" transform="translate(-98.469 -375.379)" fill="#fff"/>
  <path id="Path_12" data-name="Path 12" d="M288.966,567.68v4.648H272.38v5.384h15.211v4.294H272.38v6.161h16.94v4.645H265.47V567.68Z" transform="translate(-175.853 -376.043)" fill="#fff"/>
  <path id="Path_13" data-name="Path 13" d="M389.784,572.161a6.177,6.177,0,0,0-1.529-1.384,7.762,7.762,0,0,0-2.076-.925,8.831,8.831,0,0,0-2.424-.338,9.7,9.7,0,0,0-3.933.716,7.028,7.028,0,0,0-2.623,1.924,7.6,7.6,0,0,0-1.462,2.741,11.035,11.035,0,0,0-.459,3.183,10.247,10.247,0,0,0,.459,3.038,7.491,7.491,0,0,0,1.462,2.677,7.174,7.174,0,0,0,2.623,1.9,9.645,9.645,0,0,0,3.933.716,7.261,7.261,0,0,0,4.915-1.536,6.505,6.505,0,0,0,2.161-4.051h6.644a10.706,10.706,0,0,1-1.35,4.227,10.49,10.49,0,0,1-2.883,3.217,13.018,13.018,0,0,1-4.193,2.026,18.769,18.769,0,0,1-5.287.7,19.618,19.618,0,0,1-6.448-1,14.239,14.239,0,0,1-4.827-2.745,11.926,11.926,0,0,1-3.021-4.095,12.378,12.378,0,0,1-1.047-5.084,12.827,12.827,0,0,1,1.047-5.192,12.177,12.177,0,0,1,3.015-4.176,14.182,14.182,0,0,1,4.827-2.8,20.7,20.7,0,0,1,11.319-.419,14.541,14.541,0,0,1,4.1,1.732,10.29,10.29,0,0,1,2.994,2.812,8.666,8.666,0,0,1,1.485,3.845h-6.654a4,4,0,0,0-.773-1.722Z" transform="translate(-244.048 -374.201)" fill="#fff"/>
  <path id="Path_14" data-name="Path 14" d="M487.375,572.907a12.178,12.178,0,0,1,3.015-4.176,14.134,14.134,0,0,1,4.827-2.8,21.084,21.084,0,0,1,12.912,0,14.2,14.2,0,0,1,4.807,2.8,12.177,12.177,0,0,1,3.015,4.176A12.829,12.829,0,0,1,517,578.1a12.379,12.379,0,0,1-1.047,5.084,11.925,11.925,0,0,1-3.015,4.108,14.268,14.268,0,0,1-4.807,2.745,21.426,21.426,0,0,1-12.912,0,14.2,14.2,0,0,1-4.827-2.745,11.927,11.927,0,0,1-3.015-4.115,12.38,12.38,0,0,1-1.047-5.084A12.83,12.83,0,0,1,487.375,572.907Zm6.269,8.244a7.552,7.552,0,0,0,1.465,2.677,7.143,7.143,0,0,0,2.623,1.9,11.14,11.14,0,0,0,7.862,0,7.2,7.2,0,0,0,2.623-1.9,7.543,7.543,0,0,0,1.462-2.677,10.244,10.244,0,0,0,.459-3.038,11.031,11.031,0,0,0-.459-3.183,7.649,7.649,0,0,0-1.462-2.741,7.057,7.057,0,0,0-2.623-1.924,11.141,11.141,0,0,0-7.862,0,7,7,0,0,0-2.623,1.924,7.658,7.658,0,0,0-1.465,2.741,11.14,11.14,0,0,0-.459,3.183A10.354,10.354,0,0,0,493.644,581.151Z" transform="translate(-322.154 -374.214)" fill="#fff"/>
  <path id="Path_15" data-name="Path 15" d="M629.832,566.678a12.393,12.393,0,0,1,3.781.54,9.2,9.2,0,0,1,2.883,1.489,6.574,6.574,0,0,1,1.836,2.184,5.8,5.8,0,0,1,.631,2.674,6.327,6.327,0,0,1-1.158,3.808,7.126,7.126,0,0,1-3.778,2.447v.071a5.843,5.843,0,0,1,2.1.857,5.036,5.036,0,0,1,1.35,1.35,5.633,5.633,0,0,1,.766,1.732,12.277,12.277,0,0,1,.338,1.887c.027.4.057.861.088,1.4s.081,1.084.152,1.644a8.669,8.669,0,0,0,.338,1.59,3.352,3.352,0,0,0,.719,1.276h-6.853a8.038,8.038,0,0,1-.7-2.832q-.132-1.641-.395-3.146a4.472,4.472,0,0,0-1.482-2.866,6,6,0,0,0-3.713-.908H619.87v9.753H613V566.678Zm-2.444,11.292a6.088,6.088,0,0,0,3.538-.84A3.13,3.13,0,0,0,632.1,574.4a2.985,2.985,0,0,0-1.178-2.637,6.231,6.231,0,0,0-3.538-.824H619.87v7.028Z" transform="translate(-406.064 -375.378)" fill="#fff"/>
  <path id="Path_16" data-name="Path 16" d="M1.1,71.225V.37H71.958L50.393,21.931H22.665V49.66L1.1,71.221Z" transform="translate(-0.729 -0.245)" fill="#ff214f"/>
</svg>
