<svg xmlns="http://www.w3.org/2000/svg" viewBox="0 0 833.13 833.13"><title>Asset 1</title><path d="M833.13,833.13H0V331.64l63.87-63.87V769.25H769.25V63.87H267.76L331.64,0H833.12V833.13h0Z"/><polygon points="571.35 206.04 497.92 206.04 400.49 463.69 309.09 334.66 436.34 206.04 346.95 206.04 219.7 341.04 219.7 206.04 148.1 206.04 148.1 531.68 219.7 531.68 219.7 426.79 260.75 385.28 358.81 531.68 374.78 531.68 446.84 531.68 448.65 531.68 447.44 529.97 455.68 506.57 455.66 506.56 507.58 358.65 507.79 358.73 533.49 286.31 534.41 286.31 558.59 356.73 558.64 356.71 558.67 356.7 594.14 459.17 594.15 459.17 594.76 460.98 609.95 504.84 609.74 504.91 609.69 504.93 618.78 531.68 693.12 531.68 571.35 206.04" fill="#ff214f"/><path d="M188.51,566.68A58.28,58.28,0,0,1,205.14,569a38.29,38.29,0,0,1,13.34,6.83,31.62,31.62,0,0,1,8.8,11.39,37.89,37.89,0,0,1,3.17,16.05,41.84,41.84,0,0,1-2.59,14.91A31.5,31.5,0,0,1,220,630,37.27,37.27,0,0,1,207,637.76a54,54,0,0,1-18.45,2.85H148.65V566.68Zm-1.42,60.26a32,32,0,0,0,8.54-1.14A19.91,19.91,0,0,0,203,622a18.92,18.92,0,0,0,5.18-6.88,24.86,24.86,0,0,0,1.94-10.35,35.11,35.11,0,0,0-1.36-10.1A18.82,18.82,0,0,0,204.3,587a20.15,20.15,0,0,0-8.21-4.91,40.25,40.25,0,0,0-12.63-1.71H169v46.59Z"/><path d="M335.07,567.68v13.77H285.94V597.4H331v12.72H285.94v18.25h50.18v13.76H265.47V567.68Z"/><path d="M431.71,586.41a18.3,18.3,0,0,0-4.53-4.1,23,23,0,0,0-6.15-2.74,26.15,26.15,0,0,0-7.18-1,28.74,28.74,0,0,0-11.65,2.12,20.82,20.82,0,0,0-7.77,5.7,22.51,22.51,0,0,0-4.33,8.12,32.69,32.69,0,0,0-1.36,9.43,30.35,30.35,0,0,0,1.36,9,22.19,22.19,0,0,0,4.33,7.93,21.25,21.25,0,0,0,7.77,5.64,28.57,28.57,0,0,0,11.65,2.12q9.31,0,14.56-4.55a19.27,19.27,0,0,0,6.4-12h19.68a31.71,31.71,0,0,1-4,12.52,31.07,31.07,0,0,1-8.54,9.53,38.56,38.56,0,0,1-12.42,6,55.61,55.61,0,0,1-15.66,2.08,58.11,58.11,0,0,1-19.1-2.95,42.18,42.18,0,0,1-14.3-8.13A35.33,35.33,0,0,1,371.52,619a36.67,36.67,0,0,1-3.1-15.06,38,38,0,0,1,3.1-15.38,36.07,36.07,0,0,1,8.93-12.37,42,42,0,0,1,14.3-8.29,61.31,61.31,0,0,1,33.53-1.24,43.07,43.07,0,0,1,12.16,5.13,30.48,30.48,0,0,1,8.87,8.33,25.67,25.67,0,0,1,4.4,11.39H434A11.86,11.86,0,0,0,431.71,586.41Z"/><path d="M489.43,588.58a36.07,36.07,0,0,1,8.93-12.37,41.87,41.87,0,0,1,14.3-8.29,62.46,62.46,0,0,1,38.25,0,42.06,42.06,0,0,1,14.24,8.29,36.07,36.07,0,0,1,8.93,12.37,38,38,0,0,1,3.1,15.38,36.67,36.67,0,0,1-3.1,15.06,35.33,35.33,0,0,1-8.93,12.17,42.27,42.27,0,0,1-14.24,8.13,63.47,63.47,0,0,1-38.25,0,42.08,42.08,0,0,1-14.3-8.13A35.33,35.33,0,0,1,489.43,619a36.67,36.67,0,0,1-3.1-15.06A38,38,0,0,1,489.43,588.58ZM508,613a22.37,22.37,0,0,0,4.34,7.93,21.16,21.16,0,0,0,7.77,5.64,33,33,0,0,0,23.29,0,21.33,21.33,0,0,0,7.77-5.64A22.34,22.34,0,0,0,555.5,613a30.35,30.35,0,0,0,1.36-9,32.69,32.69,0,0,0-1.36-9.43,22.66,22.66,0,0,0-4.33-8.12,20.9,20.9,0,0,0-7.77-5.7,33,33,0,0,0-23.29,0,20.74,20.74,0,0,0-7.77,5.7,22.68,22.68,0,0,0-4.34,8.12,33,33,0,0,0-1.36,9.43A30.67,30.67,0,0,0,508,613Z"/><path d="M662.86,566.68a36.72,36.72,0,0,1,11.2,1.6,27.24,27.24,0,0,1,8.54,4.41,19.48,19.48,0,0,1,5.44,6.47,17.17,17.17,0,0,1,1.87,7.92,18.74,18.74,0,0,1-3.43,11.28q-3.42,4.77-11.19,7.25v.21a17.31,17.31,0,0,1,6.21,2.54,14.92,14.92,0,0,1,4,4,16.68,16.68,0,0,1,2.27,5.13,36.35,36.35,0,0,1,1,5.59c.08,1.18.17,2.55.26,4.14s.24,3.21.45,4.87a25.69,25.69,0,0,0,1,4.71,9.93,9.93,0,0,0,2.13,3.78H672.31a23.81,23.81,0,0,1-2.07-8.39q-.39-4.86-1.17-9.32-1-5.79-4.39-8.49c-2.25-1.79-5.91-2.69-11-2.69H633.35v28.89H613V566.68Zm-7.24,33.45q7,0,10.48-2.49t3.49-8.08q0-5.38-3.49-7.81t-10.48-2.44H633.35v20.82Z"/><polygon points="1.1 210.26 1.1 0.37 211 0.37 147.12 64.24 64.98 64.24 64.98 146.38 1.1 210.25 1.1 210.26" fill="#ff214f"/></svg>