<svg xmlns="http://www.w3.org/2000/svg" viewBox="0 0 2136.32 496"><title>Asset 4</title><polygon points="410.8 129.28 356.59 129.28 284.67 319.47 217.19 224.22 311.13 129.28 245.14 129.28 151.21 228.93 151.21 129.28 98.34 129.28 98.34 369.67 151.21 369.67 151.21 292.23 181.51 261.59 253.89 369.67 265.68 369.67 318.88 369.67 320.22 369.67 319.32 368.4 325.41 351.13 325.39 351.13 363.73 241.94 363.88 241.99 382.85 188.53 383.52 188.53 401.38 240.51 401.42 240.5 401.44 240.49 427.62 316.13 427.63 316.13 428.08 317.47 439.29 349.85 439.14 349.9 439.1 349.92 445.81 369.67 500.69 369.67 410.8 129.28" fill="#ff214f"/><path d="M821.15,139.35a192.64,192.64,0,0,1,54.77,7.5q25.37,7.52,43.91,22.51a103.62,103.62,0,0,1,29,37.51q10.44,22.51,10.45,52.86a137.67,137.67,0,0,1-8.53,49.11,103.22,103.22,0,0,1-25.79,38.87q-17.27,16.37-43.05,25.75t-60.74,9.37H689.86V139.35Zm-4.69,198.47a105.34,105.34,0,0,0,28.14-3.76,65.37,65.37,0,0,0,24.29-12.44,61.88,61.88,0,0,0,17.05-22.68q6.39-14,6.39-34.09a115,115,0,0,0-4.47-33.25,61.42,61.42,0,0,0-14.71-25.41q-10.23-10.56-27.06-16.2t-41.56-5.63H756.79V337.82Z" fill="#fff"/><path d="M1214.8,142.66V188H1053v52.55H1201.5v41.89H1053v60.1h165.26v45.33H985.58V142.66Z" fill="#fff"/><path d="M1451.66,204.32a60.18,60.18,0,0,0-14.92-13.48,75.26,75.26,0,0,0-20.25-9,85.41,85.41,0,0,0-23.66-3.24q-22.59,0-38.36,7t-25.57,18.76a74.62,74.62,0,0,0-14.28,26.76,107.87,107.87,0,0,0-4.48,31,100.31,100.31,0,0,0,4.48,29.84A73.49,73.49,0,0,0,1328.9,318q9.8,11.61,25.57,18.59t38.36,7q30.69,0,48-15t21.1-39.56h64.79a104.68,104.68,0,0,1-13.21,41.27,103,103,0,0,1-28.14,31.37q-17.47,13-40.92,19.77t-51.58,6.83q-34.95,0-62.87-9.72t-47.1-26.77a116.14,116.14,0,0,1-29.41-40.07,120.78,120.78,0,0,1-10.23-49.62,124.8,124.8,0,0,1,10.23-50.63,118.75,118.75,0,0,1,29.41-40.75q19.19-17.4,47.1-27.29t62.87-9.88a189.25,189.25,0,0,1,47.54,5.79,142.62,142.62,0,0,1,40.07,16.89,100.34,100.34,0,0,1,29.19,27.45,84.91,84.91,0,0,1,14.5,37.5h-64.8A38.74,38.74,0,0,0,1451.66,204.32Z" fill="#fff"/><path d="M1559.52,211.48a118.88,118.88,0,0,1,29.41-40.75q19.18-17.4,47.1-27.29t62.88-9.88q35.37,0,63.09,9.88t46.88,27.29a118.62,118.62,0,0,1,29.41,40.75,124.81,124.81,0,0,1,10.24,50.63,120.79,120.79,0,0,1-10.24,49.62,116,116,0,0,1-29.41,40.07q-19.17,17.06-46.88,26.77t-63.09,9.72q-35,0-62.88-9.72t-47.1-26.77a116.27,116.27,0,0,1-29.41-40.07,120.94,120.94,0,0,1-10.22-49.62A125,125,0,0,1,1559.52,211.48ZM1620.69,292A73.49,73.49,0,0,0,1635,318q9.81,11.61,25.58,18.59t38.36,7q22.58,0,38.37-7T1762.85,318A73.8,73.8,0,0,0,1777.13,292a100.62,100.62,0,0,0,4.47-29.84,108.21,108.21,0,0,0-4.47-31,74.93,74.93,0,0,0-14.28-26.76q-9.81-11.77-25.57-18.76t-38.37-7q-22.61,0-38.36,7A69,69,0,0,0,1635,204.32a74.62,74.62,0,0,0-14.28,26.76,108.21,108.21,0,0,0-4.47,31A100.62,100.62,0,0,0,1620.69,292Z" fill="#fff"/><path d="M2038.28,139.35q20.47,0,36.88,5.29a89.92,89.92,0,0,1,28.13,14.49,64.24,64.24,0,0,1,17.9,21.32,56.53,56.53,0,0,1,6.18,26.08q0,21.48-11.29,37.17t-36.88,23.87v.68q12.38,2.75,20.46,8.36a49.85,49.85,0,0,1,13.22,13.29,54.73,54.73,0,0,1,7.46,16.89,119.39,119.39,0,0,1,3.19,18.42q.42,5.79.85,13.63c.28,5.23.79,10.57,1.5,16a86.74,86.74,0,0,0,3.41,15.52,32.93,32.93,0,0,0,7,12.44H2069.4q-5.54-11.59-6.82-27.62t-3.84-30.69q-3.4-19.09-14.49-28T2008,287.69H1941.1v95.14h-66.93V139.35ZM2014.42,249.5q23,0,34.52-8.19t11.51-26.6q0-17.72-11.51-25.74t-34.52-8H1941.1V249.5Z" fill="#fff"/><path d="M580.89,496H0V197.44l44.54-38V458H536.36V38H186.7L231.23,0H580.89V496Z" fill="#fff"/><polygon points="0.77 125.18 0.77 0.22 147.12 0.22 102.58 38.25 45.31 38.25 45.31 87.15 0.77 125.17 0.77 125.18" fill="#ff214f"/></svg>